<?xml version="1.0" standalone="no"?>
<!DOCTYPE svg PUBLIC "-//W3C//DTD SVG 20010904//EN"
 "http://www.w3.org/TR/2001/REC-SVG-20010904/DTD/svg10.dtd">
<svg version="1.0" xmlns="http://www.w3.org/2000/svg"
 width="128.000000pt" height="128.000000pt" viewBox="0 0 128.000000 128.000000"
 preserveAspectRatio="xMidYMid meet">

<g transform="translate(0.000000,128.000000) scale(0.100000,-0.100000)"
fill="#000000" stroke="none">
<path d="M172 1263 c-59 -21 -135 -99 -156 -159 -24 -71 -24 -857 0 -928 22
-63 97 -138 160 -160 71 -24 857 -24 928 0 63 22 138 97 160 160 20 59 23 303
4 322 -9 9 -9 12 0 12 8 0 12 19 12 55 0 49 -2 55 -21 55 -21 0 -21 0 2 21
l24 20 -23 -11 c-34 -17 -38 -5 -8 23 26 24 26 26 25 158 -1 74 -4 124 -7 113
-7 -23 -109 -120 -117 -112 -3 3 24 44 60 92 36 48 65 97 65 110 0 85 -88 200
-176 230 -69 23 -866 23 -932 -1z m864 -127 c5 -12 -92 -115 -118 -125 -13 -4
12 43 51 97 31 42 57 54 67 28z m-547 -76 c22 -36 35 -66 30 -68 -11 -4 -108
98 -109 115 0 11 18 23 33 20 4 -1 25 -31 46 -67z m311 -14 c0 -36 -12 -86
-19 -82 -3 2 -4 29 -3 60 4 53 22 71 22 22z m-526 -66 c33 -61 18 -66 -24 -8
-33 45 -37 58 -17 58 8 0 26 -22 41 -50z m199 25 c12 -17 14 -25 6 -25 -15 0
-49 29 -49 42 0 17 26 7 43 -17z m-183 -6 c0 -6 -4 -7 -10 -4 -5 3 -10 11 -10
16 0 6 5 7 10 4 6 -3 10 -11 10 -16z m705 1 c7 -12 -42 -37 -52 -27 -4 4 2 14
13 22 23 17 31 18 39 5z m-375 -50 c0 -5 19 -10 43 -10 24 0 49 -6 55 -12 7
-7 37 -13 67 -13 40 -1 63 -7 85 -23 16 -13 30 -18 30 -13 0 5 -5 11 -12 13
-9 3 -9 6 -1 11 7 5 17 -1 23 -13 6 -11 17 -20 24 -20 18 0 43 -30 51 -62 6
-24 12 -28 41 -28 39 0 100 -53 110 -98 4 -15 16 -34 27 -43 14 -12 18 -22 12
-35 -7 -18 -7 -18 -15 1 -7 19 -8 18 -20 -8 -12 -24 -11 -32 9 -68 39 -69 15
-140 -53 -155 -42 -9 -51 -15 -35 -25 11 -7 10 -12 -5 -26 -18 -17 -19 -17
-12 2 6 18 5 17 -17 -3 -21 -20 -35 -23 -93 -22 -38 1 -94 -3 -124 -8 -33 -6
-65 -6 -79 0 -17 6 -27 5 -33 -4 -7 -12 -9 -11 -12 11 -3 24 -16 21 -22 -5
-14 -60 -48 -106 -96 -130 -26 -13 -55 -24 -63 -24 -9 0 -31 -11 -48 -24 -72
-54 -114 -44 -197 47 l-62 67 1 62 c0 41 -4 67 -14 78 -8 9 -21 33 -30 54 -15
36 -15 40 5 77 15 30 18 45 10 59 -5 10 -10 39 -10 65 0 36 5 51 25 69 16 14
25 34 25 52 0 34 31 88 58 103 11 6 35 11 53 13 22 1 47 14 73 36 37 33 40 34
115 30 68 -3 76 -1 73 15 -2 11 4 17 18 17 11 0 20 -4 20 -10z m620 -80 c0 -9
-32 -30 -46 -30 -4 0 1 9 11 20 19 21 35 26 35 10z m-215 -69 c-10 -16 -25 -3
-25 22 0 20 1 20 16 5 9 -9 13 -21 9 -27z m-940 9 c3 -5 1 -10 -4 -10 -6 0
-11 5 -11 10 0 6 2 10 4 10 3 0 8 -4 11 -10z m75 -20 c0 -5 -6 -10 -12 -10 -7
0 -24 -3 -38 -7 -22 -6 -24 -5 -11 10 15 18 61 23 61 7z m-50 -197 c0 -14 -82
-55 -91 -46 -14 14 6 34 42 43 47 11 49 11 49 3z m-35 -72 c-15 -14 -55 -23
-55 -13 0 15 12 22 39 22 15 0 21 -4 16 -9z m1172 -143 c13 -12 23 -25 23 -30
0 -16 -22 -8 -41 15 -33 40 -21 51 18 15z m-1156 -38 c-24 -21 -41 -26 -41
-12 0 15 24 32 45 32 19 -1 19 -1 -4 -20z m55 -137 c-11 -11 -19 6 -11 24 8
17 8 17 12 0 3 -10 2 -21 -1 -24z"/>
<path d="M618 899 c-12 -6 -18 -22 -18 -44 0 -19 -4 -35 -10 -35 -5 0 -10 7
-10 15 0 9 -11 27 -25 40 -35 36 -94 34 -137 -4 l-32 -28 27 -32 c41 -49 38
-106 -7 -150 -19 -18 -49 -36 -67 -40 -39 -8 -54 -29 -45 -65 8 -34 30 -29 34
7 4 30 32 38 32 9 0 -28 -29 -62 -54 -62 -34 0 -50 24 -43 66 8 48 22 63 69
70 54 9 78 32 85 80 5 36 1 44 -27 72 -23 24 -41 32 -66 32 -32 0 -74 -28 -74
-49 0 -5 -3 -16 -6 -25 -5 -12 0 -14 22 -10 15 3 30 7 34 9 11 7 33 -13 26
-24 -4 -6 -24 -15 -44 -22 -20 -6 -50 -22 -67 -36 -20 -17 -24 -23 -11 -19 19
7 19 6 3 -12 -21 -23 -22 -39 -2 -22 9 8 15 9 15 2 0 -6 -4 -14 -10 -17 -5 -3
-10 -16 -10 -28 1 -22 1 -22 17 -2 15 19 15 19 9 -8 -4 -17 0 -39 9 -58 9 -17
14 -38 12 -47 -3 -13 -6 -11 -15 10 -6 14 -16 29 -23 34 -13 8 -39 -21 -39
-44 0 -12 3 -12 16 -1 14 11 15 9 10 -27 -6 -36 -5 -37 6 -14 l12 25 4 -27 c3
-28 25 -38 37 -18 11 18 48 10 110 -25 82 -46 95 -76 50 -120 -39 -40 -135
-30 -135 13 0 27 20 42 55 41 28 0 29 -1 7 -10 -16 -6 -22 -15 -20 -31 4 -30
20 -32 51 -8 36 29 35 62 -4 94 -41 35 -83 34 -120 -3 -31 -31 -43 -75 -14
-51 17 14 21 0 4 -17 -8 -8 -7 -21 7 -50 16 -31 26 -40 59 -47 70 -15 72 -16
53 -27 -25 -14 -22 -27 6 -40 18 -9 31 -7 60 6 42 20 43 24 16 48 -21 17 -27
47 -11 47 5 0 11 -7 13 -16 3 -18 78 -30 78 -12 0 5 5 6 10 3 6 -3 10 -1 10 5
0 7 7 10 15 6 10 -4 15 1 15 15 0 15 5 19 15 15 12 -4 14 0 9 19 -5 20 -3 24
10 19 11 -4 16 0 16 13 0 10 6 25 13 32 10 10 3 21 -35 56 -34 33 -45 50 -41
65 4 16 8 18 19 9 12 -10 13 -8 8 6 -5 13 -4 16 5 11 7 -5 17 -20 22 -34 8
-21 12 -23 19 -12 7 12 11 7 16 -18 4 -18 10 -35 14 -37 5 -3 6 5 2 17 -3 14
-2 19 6 14 7 -4 12 -13 12 -20 0 -7 10 -21 22 -32 l21 -19 -17 30 c-17 29 -17
29 13 -5 17 -19 31 -29 31 -23 0 10 25 15 82 14 27 0 27 1 13 23 -13 20 -21
22 -68 18 -63 -5 -81 10 -79 65 3 74 45 143 88 143 23 0 16 -20 -11 -30 -54
-21 -71 -125 -24 -151 30 -16 77 -1 94 29 l14 27 1 -41 c0 -61 30 -94 84 -94
29 0 48 6 59 18 20 22 22 33 4 26 -9 -3 -13 9 -13 46 0 45 2 50 22 50 13 0 26
4 29 10 3 5 13 10 21 10 22 0 17 -37 -6 -43 -29 -8 -27 -47 3 -47 33 0 64 26
72 59 8 37 -7 67 -48 91 -26 16 -28 20 -14 26 10 3 25 20 33 36 12 24 13 36 4
64 -23 67 -95 85 -157 38 -20 -15 -41 -23 -50 -20 -14 6 -11 12 14 39 38 40
46 63 32 89 -9 17 -17 20 -55 14 -41 -5 -44 -4 -41 17 2 19 -3 22 -39 25 -35
3 -45 -1 -62 -22 -26 -34 -36 -33 -29 3 5 23 2 30 -19 40 -31 14 -63 14 -86 0z
m-100 -62 c6 -6 14 -25 18 -41 5 -22 3 -32 -11 -42 -21 -16 -13 -44 12 -44 10
0 36 10 58 23 32 18 41 29 43 55 4 39 22 43 22 5 0 -34 -24 -64 -70 -92 -75
-45 -131 -11 -94 57 21 39 10 68 -25 66 -23 -1 -28 11 -8 19 22 10 44 7 55 -6z
m271 -58 c24 -9 39 -9 58 0 32 15 43 6 17 -14 -14 -12 -33 -14 -75 -10 -42 4
-59 2 -68 -9 -26 -31 23 -81 89 -91 109 -17 121 -83 23 -134 -42 -21 -47 -11
-10 20 56 46 48 68 -33 97 -73 25 -100 51 -100 92 0 53 36 71 99 49z m259
-111 c7 -7 12 -16 12 -22 0 -6 -5 -5 -12 2 -19 19 -56 14 -69 -10 -7 -14 -9
-44 -5 -86 5 -43 3 -69 -5 -78 -8 -9 -10 -32 -6 -65 7 -57 -8 -63 -32 -14 -11
24 -12 34 -1 59 14 35 15 47 5 97 -5 27 -2 49 13 83 19 42 24 46 54 46 19 0
39 -5 46 -12z m-378 -53 c24 -21 25 -46 5 -84 -16 -31 -39 -41 -101 -41 -47 0
-67 17 -62 52 6 42 98 63 98 22 0 -11 -4 -12 -19 -5 -27 15 -48 -11 -27 -32
28 -28 86 2 86 45 0 39 -97 62 -150 35 -34 -17 -70 -74 -70 -111 0 -33 53 -99
89 -111 19 -6 41 -45 41 -73 0 -24 -28 -62 -46 -62 -21 0 -17 23 6 38 11 7 20
20 20 29 0 20 -38 63 -56 63 -7 0 -29 14 -49 31 -28 25 -35 38 -35 68 0 55 37
112 90 139 55 29 147 27 180 -3z"/>
</g>
</svg>
